name C:\Users\u0101727\Documents\MyRepositories\upper-imu-dc\Results\main_tracking\Case_46\FLX02_angularVelocities_bodyFrame.mot
datacolumns 4
datarows 129
range 2.13000000 3.41000000
endheader 
time	radius_imu_x	radius_imu_y	radius_imu_z	
          2.13000000	         -1.67913113	          0.31888199	          1.69895851	
          2.14000000	         -1.68794904	          0.29613081	          1.68305416	
          2.15000000	         -1.69487136	          0.27353436	          1.66490579	
          2.16000000	         -1.69971355	          0.25058764	          1.64480456	
          2.17000000	         -1.70233460	          0.22694311	          1.62300882	
          2.18000000	         -1.70266316	          0.20248570	          1.59972648	
          2.19000000	         -1.70072610	          0.17736992	          1.57509688	
          2.20000000	         -1.69666947	          0.15201111	          1.54917550	
          2.21000000	         -1.69075982	          0.12702927	          1.52192728	
          2.22000000	         -1.68335692	          0.10315122	          1.49323367	
          2.23000000	         -1.67486028	          0.08108882	          1.46291392	
          2.24000000	         -1.66564333	          0.06142174	          1.43075580	
          2.25000000	         -1.65599475	          0.04451545	          1.39654794	
          2.26000000	         -1.64608284	          0.03049340	          1.36010612	
          2.27000000	         -1.63594950	          0.01926108	          1.32128983	
          2.28000000	         -1.62553207	          0.01056286	          1.28000947	
          2.29000000	         -1.61470487	          0.00405046	          1.23622925	
          2.30000000	         -1.60333693	         -0.00065315	          1.18995259	
          2.31000000	         -1.59133221	         -0.00390894	          1.14121655	
          2.32000000	         -1.57860906	         -0.00605270	          1.09010298	
          2.33000000	         -1.56513373	         -0.00739532	          1.03672148	
          2.34000000	         -1.55091754	         -0.00824650	          0.98121456	
          2.35000000	         -1.53597264	         -0.00893043	          0.92376952	
          2.36000000	         -1.52030898	         -0.00978042	          0.86460969	
          2.37000000	         -1.50392271	         -0.01111984	          0.80399179	
          2.38000000	         -1.48679571	         -0.01323706	          0.74220171	
          2.39000000	         -1.46889746	         -0.01636194	          0.67955107	
          2.40000000	         -1.45018973	         -0.02065139	          0.61637288	
          2.41000000	         -1.43063392	         -0.02618993	          0.55301639	
          2.42000000	         -1.41020037	         -0.03300421	          0.48984019	
          2.43000000	         -1.38887878	         -0.04108279	          0.42720379	
          2.44000000	         -1.36668831	         -0.05039086	          0.36545826	
          2.45000000	         -1.34368576	         -0.06087181	          0.30493705	
          2.46000000	         -1.31997069	         -0.07243305	          0.24594812	
          2.47000000	         -1.29568695	         -0.08491881	          0.18876781	
          2.48000000	         -1.27102097	         -0.09807762	          0.13363631	
          2.49000000	         -1.24619799	         -0.11153186	          0.08075395	
          2.50000000	         -1.22147721	         -0.12475639	          0.03027709	
          2.51000000	         -1.19714544	         -0.13707237	         -0.01768670	
          2.52000000	         -1.17350755	         -0.14766110	         -0.06308327	
          2.53000000	         -1.15087239	         -0.15560062	         -0.10591426	
          2.54000000	         -1.12953419	         -0.15992498	         -0.14623513	
          2.55000000	         -1.10975081	         -0.15970447	         -0.18414785	
          2.56000000	         -1.09172182	         -0.15414216	         -0.21978865	
          2.57000000	         -1.07557002	         -0.14267673	         -0.25331330	
          2.58000000	         -1.06133035	         -0.12507318	         -0.28488343	
          2.59000000	         -1.04894926	         -0.10147524	         -0.31465702	
          2.60000000	         -1.03829502	         -0.07239959	         -0.34278395	
          2.61000000	         -1.02917599	         -0.03867570	         -0.36940469	
          2.62000000	         -1.02136090	         -0.00135678	         -0.39464867	
          2.63000000	         -1.01459783	          0.03837253	         -0.41863062	
          2.64000000	         -1.00863047	          0.07927932	         -0.44144637	
          2.65000000	         -1.00321239	          0.12015797	         -0.46317096	
          2.66000000	         -0.99811968	          0.15990263	         -0.48386099	
          2.67000000	         -0.99316015	          0.19757389	         -0.50355970	
          2.68000000	         -0.98817673	          0.23244819	         -0.52230168	
          2.69000000	         -0.98304407	          0.26403997	         -0.54011499	
          2.70000000	         -0.97765982	          0.29209539	         -0.55702132	
          2.71000000	         -0.97193376	          0.31656435	         -0.57303635	
          2.72000000	         -0.96577794	          0.33755885	         -0.58817156	
          2.73000000	         -0.95909976	          0.35530458	         -0.60243681	
          2.74000000	         -0.95179955	          0.37009372	         -0.61584146	
          2.75000000	         -0.94377250	          0.38224744	         -0.62839287	
          2.76000000	         -0.93491406	          0.39209161	         -0.64009186	
          2.77000000	         -0.92512673	          0.39994322	         -0.65092625	
          2.78000000	         -0.91432660	          0.40610311	         -0.66086476	
          2.79000000	         -0.90244887	          0.41085169	         -0.66985344	
          2.80000000	         -0.88945185	          0.41444565	         -0.67781620	
          2.81000000	         -0.87531978	          0.41711414	         -0.68466032	
          2.82000000	         -0.86006389	          0.41905492	         -0.69028670	
          2.83000000	         -0.84372130	          0.42043206	         -0.69460361	
          2.84000000	         -0.82635134	          0.42137672	         -0.69754195	
          2.85000000	         -0.80802927	          0.42199087	         -0.69906932	
          2.86000000	         -0.78883882	          0.42235150	         -0.69920056	
          2.87000000	         -0.76886512	          0.42251295	         -0.69800308	
          2.88000000	         -0.74818963	          0.42250579	         -0.69559641	
          2.89000000	         -0.72688775	          0.42233460	         -0.69214582	
          2.90000000	         -0.70502882	          0.42197766	         -0.68785140	
          2.91000000	         -0.68267795	          0.42139048	         -0.68293408	
          2.92000000	         -0.65989889	          0.42051281	         -0.67762112	
          2.93000000	         -0.63675728	          0.41927662	         -0.67213315	
          2.94000000	         -0.61332378	          0.41761276	         -0.66667373	
          2.95000000	         -0.58967683	          0.41545462	         -0.66142149	
          2.96000000	         -0.56590457	          0.41273884	         -0.65652371	
          2.97000000	         -0.54210577	          0.40940422	         -0.65209060	
          2.98000000	         -0.51838964	          0.40539039	         -0.64819011	
          2.99000000	         -0.49487429	          0.40063737	         -0.64484418	
          3.00000000	         -0.47168430	          0.39508642	         -0.64202749	
          3.01000000	         -0.44894763	          0.38868155	         -0.63966995	
          3.02000000	         -0.42679264	          0.38137041	         -0.63766312	
          3.03000000	         -0.40534560	          0.37310315	         -0.63586975	
          3.04000000	         -0.38472940	          0.36382835	         -0.63413492	
          3.05000000	         -0.36506347	          0.35348707	         -0.63229743	
          3.06000000	         -0.34646448	          0.34200901	         -0.63020102	
          3.07000000	         -0.32904705	          0.32931618	         -0.62770497	
          3.08000000	         -0.31292295	          0.31533753	         -0.62469360	
          3.09000000	         -0.29819832	          0.30003343	         -0.62108381	
          3.10000000	         -0.28496878	          0.28342396	         -0.61682941	
          3.11000000	         -0.27331418	          0.26561143	         -0.61192167	
          3.12000000	         -0.26329430	          0.24678794	         -0.60638534	
          3.13000000	         -0.25494701	          0.22722283	         -0.60027086	
          3.14000000	         -0.24828860	          0.20723434	         -0.59364451	
          3.15000000	         -0.24331543	          0.18715721	         -0.58657886	
          3.16000000	         -0.24000508	          0.16731859	         -0.57914537	
          3.17000000	         -0.23831561	          0.14802829	         -0.57141002	
          3.18000000	         -0.23818234	          0.12958177	         -0.56343205	
          3.19000000	         -0.23951266	          0.11226884	         -0.55526546	
          3.20000000	         -0.24218026	          0.09638106	         -0.54696274	
          3.21000000	         -0.24602109	          0.08221338	         -0.53857949	
          3.22000000	         -0.25083276	          0.07005848	         -0.53017889	
          3.23000000	         -0.25637851	          0.06019388	         -0.52183455	
          3.24000000	         -0.26239484	          0.05286377	         -0.51363111	
          3.25000000	         -0.26860141	          0.04825954	         -0.50566274	
          3.26000000	         -0.27471203	          0.04650240	         -0.49802989	
          3.27000000	         -0.28044568	          0.04762987	         -0.49083440	
          3.28000000	         -0.28553738	          0.05158660	         -0.48417256	
          3.29000000	         -0.28974846	          0.05822070	         -0.47812595	
          3.30000000	         -0.29287612	          0.06728624	         -0.47275048	
          3.31000000	         -0.29476163	          0.07845219	         -0.46806518	
          3.32000000	         -0.29529638	          0.09131715	         -0.46404276	
          3.33000000	         -0.29442480	          0.10542847	         -0.46060392	
          3.34000000	         -0.29214335	          0.12030578	         -0.45761648	
          3.35000000	         -0.28849532	          0.13546988	         -0.45489978	
          3.36000000	         -0.28356215	          0.15047637	         -0.45223407	
          3.37000000	         -0.27745271	          0.16494912	         -0.44937416	
          3.38000000	         -0.27029272	          0.17860524	         -0.44606587	
          3.39000000	         -0.26221567	          0.19126452	         -0.44206373	
          3.40000000	         -0.25335624	          0.20284289	         -0.43714840	
          3.41000000	         -0.24384572	          0.21333573	         -0.43114279	
